<svg xmlns="http://www.w3.org/2000/svg" width="35" height="42" fill="none"><path fill="#333" d="M34.61 30.61a60.301 60.301 0 0 1-.715 1.903 24.398 24.398 0 0 1-2.206 3.98c-1.168 1.665-2.12 2.812-2.855 3.439-1.125 1.038-2.358 1.579-3.656 1.6-.93 0-2.055-.26-3.374-.8s-2.531-.8-3.634-.8c-1.168 0-2.4.26-3.742.8-1.341.54-2.4.821-3.223.844-1.254.043-2.487-.497-3.742-1.644-.8-.692-1.795-1.882-2.985-3.57-1.275-1.794-2.335-3.871-3.158-6.25C.433 27.538 0 25.05 0 22.649c0-2.747.607-5.126 1.796-7.116.9-1.563 2.19-2.867 3.742-3.785A9.935 9.935 0 0 1 10.6 10.32c.995 0 2.293.303 3.916.909 1.621.606 2.66.908 3.114.908.346 0 1.491-.367 3.438-1.082 1.84-.67 3.397-.929 4.672-.821 3.461.28 6.057 1.643 7.787 4.088-3.093 1.881-4.628 4.499-4.585 7.873.022 2.617.973 4.802 2.855 6.532a8.797 8.797 0 0 0 2.812 1.882ZM25.913.5c.021.28.043.54.043.822 0 2.054-.757 3.98-2.25 5.754-1.817 2.12-4.001 3.33-6.358 3.136a8.45 8.45 0 0 1-.044-.78c0-1.967.865-4.087 2.38-5.817.757-.865 1.73-1.601 2.897-2.186C23.772.868 24.876.544 25.915.5h-.001Z"/></svg>